<svg width="24" height="24" viewBox="0 0 24 24" fill="none" xmlns="http://www.w3.org/2000/svg">
<path d="M5.05733 3.87214C5.37389 3.48892 5.31985 2.92164 4.93664 2.60508C4.55342 2.28852 3.98614 2.34255 3.66958 2.72577C2.59045 4.03212 1.81191 5.59787 1.44184 7.31639C1.3372 7.80231 1.64629 8.28105 2.13221 8.38569C2.61813 8.49032 3.09687 8.18124 3.2015 7.69532C3.50932 6.26588 4.15712 4.96188 5.05733 3.87214Z" fill="#9EB0BE"/>
<path d="M20.33 2.72577C20.0134 2.34255 19.4462 2.28852 19.0629 2.60508C18.6797 2.92164 18.6257 3.48892 18.9422 3.87214C19.8424 4.96188 20.4902 6.26588 20.7981 7.69532C20.9027 8.18124 21.3814 8.49032 21.8674 8.38569C22.3533 8.28105 22.6624 7.80231 22.5577 7.31639C22.1877 5.59787 21.4091 4.03212 20.33 2.72577Z" fill="#9EB0BE"/>
<path fillRule="evenodd" clipRule="evenodd" d="M12 2.39995C8.02351 2.39995 4.79996 5.6235 4.79996 9.59995C4.79996 11.8639 4.25548 13.9981 3.29113 15.8811C3.1631 16.1311 3.15912 16.4266 3.28038 16.6799C3.40164 16.9333 3.63422 17.1155 3.90923 17.1726C5.19045 17.4386 6.49418 17.6427 7.81711 17.7816C8.00993 19.9223 9.80905 21.6 12 21.6C14.191 21.6 15.9901 19.9223 16.1829 17.7816C17.5058 17.6427 18.8095 17.4386 20.0907 17.1726C20.3657 17.1155 20.5983 16.9333 20.7195 16.6799C20.8408 16.4266 20.8368 16.1311 20.7088 15.8811C19.7444 13.9981 19.2 11.8639 19.2 9.59995C19.2 5.6235 15.9764 2.39995 12 2.39995ZM12 19.7999C10.8573 19.7999 9.90117 19.0014 9.65916 17.9319C10.4337 17.9771 11.2142 18 12 18C12.7857 18 13.5662 17.9771 14.3408 17.9319C14.0988 19.0014 13.1427 19.7999 12 19.7999Z" fill="#9EB0BE"/>
</svg>
