<svg width="24" height="24" viewBox="0 0 24 24" fill="none" xmlns="http://www.w3.org/2000/svg">
<path fillRule="evenodd" clipRule="evenodd" d="M12 21.6C17.3019 21.6 21.6 17.302 21.6 12C21.6 6.69809 17.3019 2.40002 12 2.40002C6.69807 2.40002 2.4 6.69809 2.4 12C2.4 17.302 6.69807 21.6 12 21.6ZM16.6279 9.82938C16.9202 9.42739 16.8313 8.86452 16.4294 8.57216C16.0274 8.27981 15.4645 8.36868 15.1721 8.77067L10.9916 14.5189L8.7364 12.2636C8.38493 11.9122 7.81508 11.9122 7.46361 12.2636C7.11213 12.6151 7.11213 13.1849 7.46361 13.5364L10.4636 16.5364C10.6497 16.7225 10.908 16.8179 11.1704 16.7973C11.4328 16.7767 11.673 16.6423 11.8279 16.4294L16.6279 9.82938Z" fill="#9EB0BE"/>
</svg>
