<svg width="24" height="24" viewBox="0 0 24 24" fill="none" xmlns="http://www.w3.org/2000/svg">
<path fillRule="evenodd" clipRule="evenodd" d="M12 21.6C17.3019 21.6 21.6 17.302 21.6 12C21.6 6.69809 17.3019 2.40002 12 2.40002C6.69807 2.40002 2.4 6.69809 2.4 12C2.4 17.302 6.69807 21.6 12 21.6ZM12.75 6.00002C12.75 5.58581 12.4142 5.25002 12 5.25002C11.5858 5.25002 11.25 5.58581 11.25 6.00002V12C11.25 12.4142 11.5858 12.75 12 12.75H16.8C17.2142 12.75 17.55 12.4142 17.55 12C17.55 11.5858 17.2142 11.25 16.8 11.25H12.75V6.00002Z" fill="#9EB0BE"/>
</svg>
