<svg width="24" height="24" viewBox="0 0 24 24" fill="none" xmlns="http://www.w3.org/2000/svg">
<path d="M4.20002 3.30002C4.20002 2.80297 3.79708 2.40002 3.30002 2.40002C2.80297 2.40002 2.40002 2.80297 2.40002 3.30002V20.7C2.40002 21.1971 2.80297 21.6 3.30002 21.6C3.79708 21.6 4.20002 21.1971 4.20002 20.7V15.4303L6.18893 15.0116C7.92552 14.646 9.73501 14.8884 11.3141 15.6982C13.5267 16.8329 16.095 17.0586 18.4716 16.3273L20.9647 15.5602C21.3423 15.444 21.6 15.0951 21.6 14.7V4.50002C21.6 4.2288 21.4777 3.97203 21.2671 3.80114C21.0565 3.63025 20.78 3.56345 20.5146 3.61933L17.6589 4.22053C15.9782 4.57437 14.2303 4.42279 12.6355 3.78489L12.033 3.54389C10.1083 2.77402 7.99881 2.59107 5.97032 3.01813L4.20002 3.39082V3.30002Z" fill="#9EB0BE"/>
</svg>
