<svg width="24" height="24" viewBox="0 0 24 24" fill="none" xmlns="http://www.w3.org/2000/svg">
<path fillRule="evenodd" clipRule="evenodd" d="M21.6 12C21.6 17.302 17.302 21.6 12 21.6C6.69809 21.6 2.40002 17.302 2.40002 12C2.40002 6.69809 6.69809 2.40002 12 2.40002C17.302 2.40002 21.6 6.69809 21.6 12ZM19.7963 12.245C19.6669 16.4394 16.2259 19.8 12 19.8C7.6922 19.8 4.20002 16.3078 4.20002 12C4.20002 8.5519 6.43744 5.62635 9.53966 4.596L8.31208 6.74426C7.92208 7.42676 8.03713 8.28585 8.59297 8.84168C9.12351 9.37223 9.93402 9.50375 10.6051 9.16821L10.8148 9.06337C10.8981 9.02171 10.99 9.00002 11.0831 9.00002H11.2582C11.4855 9.00002 11.6932 9.12843 11.7949 9.3317C11.8793 9.50061 11.8793 9.69944 11.7949 9.86835L11.7615 9.93505C11.6803 10.0974 11.5143 10.2 11.3328 10.2H10.7302C9.82339 10.2 8.9766 10.6532 8.4736 11.4077L8.42103 11.4866C7.98996 12.1332 7.88157 12.9426 8.12732 13.6798C8.37843 14.4332 8.97347 15.0237 9.72408 15.2739C10.008 15.3685 10.1998 15.6351 10.1998 15.9298V17.1896C10.1998 17.9685 10.8313 18.6 11.6103 18.6C12.0388 18.6 12.444 18.4053 12.7117 18.0707L14.6454 15.6536C14.8748 15.3668 14.9998 15.0104 14.9998 14.6431C14.9998 14.2639 15.1535 13.8949 15.4237 13.6247C15.9705 13.0779 16.0637 12.2141 15.6309 11.5649L15.0741 10.7298C15.0257 10.6571 14.9998 10.5718 14.9998 10.4845C14.9998 10.1201 15.4159 9.91204 15.7074 10.1307L16.1186 10.4391C16.4976 10.7233 17.0045 10.7685 17.4276 10.557C17.6985 10.4215 18.026 10.4747 18.2396 10.6883L19.7963 12.245Z" fill="#9EB0BE"/>
</svg>
