<svg width="24" height="24" viewBox="0 0 24 24" fill="none" xmlns="http://www.w3.org/2000/svg">
<path fillRule="evenodd" clipRule="evenodd" d="M1.20001 13.5249C1.20001 13.2284 1.23998 12.9332 1.31884 12.6474L3.14641 6.02241C3.5412 4.5913 4.84302 3.59998 6.32759 3.59998H17.6724C19.157 3.59998 20.4588 4.5913 20.8536 6.02241L22.6812 12.6474C22.76 12.9332 22.8 13.2284 22.8 13.5249V18C22.8 19.3255 21.7255 20.4 20.4 20.4H3.60001C2.27453 20.4 1.20001 19.3255 1.20001 18V13.5249ZM4.8816 6.50108C5.06105 5.85058 5.65279 5.39998 6.32759 5.39998H17.6724C18.3472 5.39998 18.939 5.85058 19.1184 6.50108L20.946 13.126C20.9528 13.1505 20.9589 13.1752 20.9644 13.2H16.8C16.3765 13.2 15.9844 13.4232 15.7682 13.7873L15.0407 15.0126C14.8245 15.3768 14.4323 15.6 14.0088 15.6H9.88329C9.42877 15.6 9.01325 15.3432 8.80998 14.9366L8.27332 13.8633C8.07005 13.4568 7.65454 13.2 7.20001 13.2H3.03564C3.04113 13.1752 3.04726 13.1505 3.05402 13.126L4.8816 6.50108Z" fill="#9EB0BE"/>
</svg>
