<svg width="16" height="16" viewBox="0 0 16 16" fill="none" xmlns="http://www.w3.org/2000/svg">
<g id="ico / 24 / actions / info_outined">
<path id="Icon color" fill-rule="evenodd" clip-rule="evenodd" d="M1.33331 8C1.33331 4.3181 4.31808 1.33333 7.99998 1.33333C9.76809 1.33333 11.4638 2.03571 12.714 3.28595C13.9643 4.53619 14.6666 6.23188 14.6666 8C14.6666 11.6819 11.6819 14.6667 7.99998 14.6667C4.31808 14.6667 1.33331 11.6819 1.33331 8ZM2.66665 7.99999C2.66665 10.9455 5.05446 13.3333 7.99998 13.3333C9.41447 13.3333 10.771 12.7714 11.7712 11.7712C12.7714 10.771 13.3333 9.41448 13.3333 7.99999C13.3333 5.05448 10.9455 2.66666 7.99998 2.66666C5.05446 2.66666 2.66665 5.05448 2.66665 7.99999ZM8.66665 8.33333C8.66665 8.14923 8.51741 7.99999 8.33331 7.99999H7.66665C7.48255 7.99999 7.33331 8.14923 7.33331 8.33333V10.3333C7.33331 10.5174 7.48255 10.6667 7.66665 10.6667H8.33331C8.51741 10.6667 8.66665 10.5174 8.66665 10.3333V8.33333ZM8.33331 5.33333C8.51741 5.33333 8.66665 5.48257 8.66665 5.66666V6.33333C8.66665 6.51742 8.51741 6.66666 8.33331 6.66666H7.66665C7.48255 6.66666 7.33331 6.51742 7.33331 6.33333V5.66666C7.33331 5.48257 7.48255 5.33333 7.66665 5.33333H8.33331Z" fill="#9EB0BE"/>
</g>
</svg>
