<svg width="24" height="24" viewBox="0 0 24 24" fill="none" xmlns="http://www.w3.org/2000/svg">
<path d="M3.72629 2.7461C3.42433 2.7033 3.12123 2.81634 2.92104 3.04642C2.72084 3.2765 2.65078 3.59231 2.73491 3.88546L4.4313 9.79651C4.65277 10.5682 5.35858 11.1 6.16146 11.1H13.5C13.9971 11.1 14.4 11.5029 14.4 12C14.4 12.497 13.9971 12.9 13.5 12.9H6.16147C5.35859 12.9 4.65278 13.4317 4.43131 14.2034L2.73491 20.1145C2.65078 20.4077 2.72084 20.7235 2.92104 20.9536C3.12123 21.1836 3.42433 21.2967 3.72629 21.2539C10.7316 20.261 17.0651 17.1825 22.078 12.6688C22.2675 12.4981 22.3757 12.2551 22.3757 12C22.3757 11.7449 22.2675 11.5018 22.078 11.3312C17.0651 6.81753 10.7316 3.739 3.72629 2.7461Z" fill="#9EB0BE"/>
</svg>
