<svg width="24" height="24" viewBox="0 0 24 24" fill="none" xmlns="http://www.w3.org/2000/svg">
<path d="M6.15294 4.20239C6.20181 4.20082 6.25089 4.20002 6.30014 4.20002H17.7001C17.7494 4.20002 17.7985 4.20082 17.8473 4.20239C17.4774 3.15248 16.4766 2.40002 15.3001 2.40002H8.70014C7.52366 2.40002 6.52293 3.15248 6.15294 4.20239Z" fill="#9EB0BE"/>
<path d="M1.20001 12.3C1.20001 10.8089 2.40884 9.60002 3.90001 9.60002H20.1C21.5912 9.60002 22.8 10.8089 22.8 12.3V18.9C22.8 20.3912 21.5912 21.6 20.1 21.6H3.90001C2.40884 21.6 1.20001 20.3912 1.20001 18.9V12.3Z" fill="#9EB0BE"/>
<path d="M3.90014 7.80002C3.85089 7.80002 3.80182 7.80082 3.75294 7.80239C4.12293 6.75248 5.12366 6.00002 6.30014 6.00002H17.7001C18.8766 6.00002 19.8774 6.75248 20.2473 7.80239C20.1985 7.80082 20.1494 7.80002 20.1001 7.80002H3.90014Z" fill="#9EB0BE"/>
</svg>
