<svg width="16" height="16" viewBox="0 0 16 16" fill="none" xmlns="http://www.w3.org/2000/svg">
<g id="ico / 24 / actions / refresh">
<path id="Icon color" d="M13.6667 6.66662H10.3333C10.1492 6.66662 10 6.51738 10 6.33329V6.13996C9.99869 6.04957 10.0349 5.96267 10.1 5.89996L11.2867 4.71329C10.4198 3.83215 9.23605 3.3351 8 3.33329C5.46477 3.33901 3.39785 5.36776 3.34488 7.90245C3.29192 10.4371 5.27228 12.5505 7.80506 12.6621C10.3378 12.7737 12.4964 10.8428 12.6667 8.31329C12.6773 8.13705 12.8234 7.99964 13 7.99996H13.6667C13.7576 8.00266 13.8438 8.04097 13.9067 8.10662C13.9679 8.17361 13.9992 8.2627 13.9933 8.35329C13.8278 11.178 11.7113 13.503 8.91455 13.9326C6.11783 14.3622 3.4011 12.7795 2.3954 10.1348C1.3897 7.49001 2.36841 4.50209 4.74394 2.96487C7.11947 1.42765 10.2461 1.75899 12.2467 3.75996L13.24 2.76662C13.3011 2.7032 13.3853 2.66714 13.4733 2.66662H13.6667C13.8508 2.66662 14 2.81586 14 2.99996V6.33329C14 6.51738 13.8508 6.66662 13.6667 6.66662Z" fill="white"/>
</g>
</svg>
