<svg width="24" height="24" viewBox="0 0 24 24" fill="none" xmlns="http://www.w3.org/2000/svg">
<path fillRule="evenodd" clipRule="evenodd" d="M5.52718 15.5629C5.83136 15.956 5.75927 16.5213 5.36616 16.8255C4.65511 17.3757 4.20001 18.2345 4.20001 19.1999C4.20001 19.3883 4.21726 19.572 4.25013 19.7498C4.42797 19.7827 4.61169 19.7999 4.80001 19.7999C5.7655 19.7999 6.62429 19.3449 7.17449 18.6338C7.47868 18.2407 8.04395 18.1686 8.43706 18.4728C8.83017 18.777 8.90226 19.3422 8.59807 19.7354C7.72165 20.868 6.3461 21.6 4.80001 21.6C4.24805 21.6 3.71602 21.5064 3.22009 21.3336C2.96067 21.2432 2.75675 21.0393 2.66636 20.7799C2.49354 20.2839 2.40001 19.7519 2.40001 19.1999C2.40001 17.6539 3.13198 16.2783 4.26461 15.4019C4.65772 15.0977 5.22299 15.1698 5.52718 15.5629Z" fill="#9EB0BE"/>
<path fillRule="evenodd" clipRule="evenodd" d="M6.90284 14.4C7.68858 15.4051 8.59486 16.3114 9.60001 17.0971V21.9C9.60001 22.397 10.003 22.7999 10.5 22.7999C13.8137 22.7999 16.5 20.1137 16.5 16.8C16.5 16.2116 16.4151 15.642 16.2565 15.1033C20.216 12.2756 22.8 7.63976 22.8 2.39995C22.8 2.29476 22.799 2.18979 22.7969 2.08506C22.7873 1.60197 22.398 1.21265 21.9149 1.20307C21.8102 1.20099 21.7052 1.19995 21.6 1.19995C16.3602 1.19995 11.7244 3.78392 8.89666 7.74344C8.35796 7.58489 7.78834 7.49995 7.20001 7.49995C3.8863 7.49995 1.20001 10.1862 1.20001 13.5C1.20001 13.997 1.60296 14.4 2.10001 14.4H6.90284ZM15.6 10.8C16.9255 10.8 18 9.72543 18 8.39995C18 7.07447 16.9255 5.99995 15.6 5.99995C14.2745 5.99995 13.2 7.07447 13.2 8.39995C13.2 9.72543 14.2745 10.8 15.6 10.8Z" fill="#9EB0BE"/>
</svg>
