<svg width="24" height="24" viewBox="0 0 24 24" fill="none" xmlns="http://www.w3.org/2000/svg">
<path d="M19.1767 2.16461C19.0645 1.6037 18.572 1.19995 18 1.19995C17.428 1.19995 16.9355 1.6037 16.8233 2.16461L16.5371 3.59568C16.4421 4.07072 16.0708 4.44203 15.5957 4.53704L14.1647 4.82325C13.6038 4.93544 13.2 5.42793 13.2 5.99995C13.2 6.57197 13.6038 7.06447 14.1647 7.17665L15.5957 7.46286C16.0708 7.55787 16.4421 7.92919 16.5371 8.40422L16.8233 9.83529C16.9355 10.3962 17.428 10.8 18 10.8C18.572 10.8 19.0645 10.3962 19.1767 9.83529L19.4629 8.40422C19.5579 7.92919 19.9292 7.55787 20.4043 7.46286L21.8353 7.17665C22.3962 7.06447 22.8 6.57197 22.8 5.99995C22.8 5.42793 22.3962 4.93544 21.8353 4.82325L20.4043 4.53704C19.9292 4.44203 19.5579 4.07072 19.4629 3.59568L19.1767 2.16461Z" fill="#9EB0BE"/>
<path d="M8.33842 6.82048C8.17508 6.33047 7.71652 5.99995 7.2 5.99995C6.68348 5.99995 6.22492 6.33047 6.06158 6.82048L5.24105 9.28206C5.12161 9.64038 4.84043 9.92156 4.48211 10.041L2.02053 10.8615C1.53052 11.0249 1.2 11.4834 1.2 12C1.2 12.5165 1.53052 12.975 2.02053 13.1384L4.48211 13.9589C4.84043 14.0783 5.12161 14.3595 5.24105 14.7178L6.06158 17.1794C6.22492 17.6694 6.68348 18 7.2 18C7.71652 18 8.17508 17.6694 8.33842 17.1794L9.15895 14.7178C9.27839 14.3595 9.55957 14.0783 9.91789 13.9589L12.3795 13.1384C12.8695 12.975 13.2 12.5165 13.2 12C13.2 11.4834 12.8695 11.0249 12.3795 10.8615L9.91789 10.041C9.55957 9.92156 9.27839 9.64038 9.15895 9.28206L8.33842 6.82048Z" fill="#9EB0BE"/>
<path d="M16.7384 16.4205C16.5751 15.9305 16.1165 15.6 15.6 15.6C15.0835 15.6 14.6249 15.9305 14.4616 16.4205L14.2411 17.0821C14.1216 17.4404 13.8404 17.7216 13.4821 17.841L12.8205 18.0615C12.3305 18.2249 12 18.6834 12 19.1999C12 19.7165 12.3305 20.175 12.8205 20.3384L13.4821 20.5589C13.8404 20.6783 14.1216 20.9595 14.2411 21.3178L14.4616 21.9794C14.6249 22.4694 15.0835 22.7999 15.6 22.7999C16.1165 22.7999 16.5751 22.4694 16.7384 21.9794L16.9589 21.3178C17.0784 20.9595 17.3596 20.6783 17.7179 20.5589L18.3795 20.3384C18.8695 20.175 19.2 19.7165 19.2 19.1999C19.2 18.6834 18.8695 18.2249 18.3795 18.0615L17.7179 17.841C17.3596 17.7216 17.0784 17.4404 16.9589 17.0821L16.7384 16.4205Z" fill="#9EB0BE"/>
</svg>
