<svg width="24" height="24" viewBox="0 0 24 24" fill="none" xmlns="http://www.w3.org/2000/svg">
<g id="heroicons-mini/sparkles">
<g id="Union">
<path d="M19.1767 2.16466C19.0645 1.60375 18.572 1.2 18 1.2C17.428 1.2 16.9355 1.60375 16.8233 2.16466L16.5371 3.59573C16.4421 4.07076 16.0708 4.44208 15.5957 4.53709L14.1647 4.8233C13.6038 4.93548 13.2 5.42798 13.2 6C13.2 6.57201 13.6038 7.06451 14.1647 7.17669L15.5957 7.46291C16.0708 7.55791 16.4421 7.92923 16.5371 8.40426L16.8233 9.83534C16.9355 10.3962 17.428 10.8 18 10.8C18.572 10.8 19.0645 10.3962 19.1767 9.83534L19.4629 8.40426C19.5579 7.92923 19.9292 7.55791 20.4043 7.46291L21.8354 7.17669C22.3963 7.06451 22.8 6.57201 22.8 6C22.8 5.42798 22.3963 4.93548 21.8354 4.8233L20.4043 4.53709C19.9292 4.44208 19.5579 4.07076 19.4629 3.59573L19.1767 2.16466Z" fill="#E1E8EE"/>
<path d="M8.33843 6.82052C8.17509 6.33051 7.71653 6 7.20001 6C6.6835 6 6.22493 6.33051 6.06159 6.82052L5.24107 9.2821C5.12162 9.64043 4.84044 9.92161 4.48212 10.041L2.02054 10.8616C1.53053 11.0249 1.20001 11.4835 1.20001 12C1.20001 12.5165 1.53053 12.9751 2.02054 13.1384L4.48212 13.9589C4.84044 14.0784 5.12162 14.3596 5.24107 14.7179L6.06159 17.1795C6.22493 17.6695 6.6835 18 7.20001 18C7.71653 18 8.17509 17.6695 8.33843 17.1795L9.15896 14.7179C9.2784 14.3596 9.55958 14.0784 9.9179 13.9589L12.3795 13.1384C12.8695 12.9751 13.2 12.5165 13.2 12C13.2 11.4835 12.8695 11.0249 12.3795 10.8616L9.9179 10.041C9.55958 9.92161 9.2784 9.64043 9.15896 9.2821L8.33843 6.82052Z" fill="#E1E8EE"/>
<path d="M16.7384 16.4205C16.5751 15.9305 16.1165 15.6 15.6 15.6C15.0835 15.6 14.6249 15.9305 14.4616 16.4205L14.2411 17.0821C14.1216 17.4404 13.8404 17.7216 13.4821 17.841L12.8205 18.0616C12.3305 18.2249 12 18.6835 12 19.2C12 19.7165 12.3305 20.1751 12.8205 20.3384L13.4821 20.5589C13.8404 20.6784 14.1216 20.9596 14.2411 21.3179L14.4616 21.9795C14.6249 22.4695 15.0835 22.8 15.6 22.8C16.1165 22.8 16.5751 22.4695 16.7384 21.9795L16.959 21.3179C17.0784 20.9596 17.3596 20.6784 17.7179 20.5589L18.3795 20.3384C18.8695 20.1751 19.2 19.7165 19.2 19.2C19.2 18.6835 18.8695 18.2249 18.3795 18.0616L17.7179 17.841C17.3596 17.7216 17.0784 17.4404 16.959 17.0821L16.7384 16.4205Z" fill="#E1E8EE"/>
</g>
</g>
</svg>
