<svg width="24" height="24" viewBox="0 0 24 24" fill="none" xmlns="http://www.w3.org/2000/svg">
<path fillRule="evenodd" clipRule="evenodd" d="M5.09999 2.40002C3.60883 2.40002 2.39999 3.60886 2.39999 5.10002V8.10002C2.39999 9.59119 3.60882 10.8 5.09999 10.8H8.09999C9.59116 10.8 10.8 9.59119 10.8 8.10002V5.10002C10.8 3.60886 9.59116 2.40002 8.09999 2.40002H5.09999ZM5.09999 13.2C3.60883 13.2 2.39999 14.4089 2.39999 15.9V18.9C2.39999 20.3912 3.60882 21.6 5.09999 21.6H8.09999C9.59116 21.6 10.8 20.3912 10.8 18.9V15.9C10.8 14.4089 9.59116 13.2 8.09999 13.2H5.09999ZM15.9 2.40002C14.4088 2.40002 13.2 3.60886 13.2 5.10002V8.10002C13.2 9.59119 14.4088 10.8 15.9 10.8H18.9C20.3912 10.8 21.6 9.59119 21.6 8.10002V5.10002C21.6 3.60886 20.3912 2.40002 18.9 2.40002H15.9ZM15.9 13.2C14.4088 13.2 13.2 14.4089 13.2 15.9V18.9C13.2 20.3912 14.4088 21.6 15.9 21.6H18.9C20.3912 21.6 21.6 20.3912 21.6 18.9V15.9C21.6 14.4089 20.3912 13.2 18.9 13.2H15.9Z" fill="#9EB0BE"/>
</svg>
